<svg xmlns="http://www.w3.org/2000/svg" viewBox="0 0 100 100" fill="none" stroke="white" stroke-width="3" stroke-linecap="round" stroke-linejoin="round">
<g transform="translate(50,50)">
<path d="M0,-12 C8,-22 8,-38 0,-45 C-8,-38 -8,-22 0,-12 Z" transform="rotate(0.0)" />
<path d="M0,-12 C8,-22 8,-38 0,-45 C-8,-38 -8,-22 0,-12 Z" transform="rotate(45.0)" />
<path d="M0,-12 C8,-22 8,-38 0,-45 C-8,-38 -8,-22 0,-12 Z" transform="rotate(90.0)" />
<path d="M0,-12 C8,-22 8,-38 0,-45 C-8,-38 -8,-22 0,-12 Z" transform="rotate(135.0)" />
<path d="M0,-12 C8,-22 8,-38 0,-45 C-8,-38 -8,-22 0,-12 Z" transform="rotate(180.0)" />
<path d="M0,-12 C8,-22 8,-38 0,-45 C-8,-38 -8,-22 0,-12 Z" transform="rotate(225.0)" />
<path d="M0,-12 C8,-22 8,-38 0,-45 C-8,-38 -8,-22 0,-12 Z" transform="rotate(270.0)" />
<path d="M0,-12 C8,-22 8,-38 0,-45 C-8,-38 -8,-22 0,-12 Z" transform="rotate(315.0)" />
</g></svg>
